# xmcd
#
# Track frame offsets: 
#        150
#        13939
#        29355
#        48393
#        65825
#        93993
#        105918
#        121737
#        132522
#        153035
#        165261
#        182412
#        211047
#        226544
#        244968
#        261831
#        279986
#        293969
#
# Disc length: 4183 seconds
#
# Revision: 8
# Processed by: cddbd v1.5.2PL0 Copyright (c) Steve Scherf et al.
# Submitted via: ExactAudioCopy v1.3
#
DISCID=e8105512
DTITLE=Various Artist - ラスマス・フェイバー・プレゼンツ・プラチナ・ジャズ ～アニメ・スタンダード Vol.1～
DYEAR=2009
DGENRE=Jazz
TTITLE0=ハレ晴レユカイ
TTITLE1=ハッピー☆マテリアル
TTITLE2=Genesis of Aquarion
TTITLE3=星間飛行
TTITLE4=水の証
TTITLE5=コスモスに君と
TTITLE6=君をのせて
TTITLE7=そらのむこう
TTITLE8=時の記憶
TTITLE9=Thanatos -If I Can't Be Yours-
TTITLE10=オネアミスの翼～メイン・テーマ
TTITLE11=光の天使
TTITLE12=夢色のスプーン
TTITLE13=炎のたからもの
TTITLE14=ガーネット
TTITLE15=Doll
TTITLE16=空へ…
TTITLE17=Voices
EXTD=YEAR: 2009
EXTT0=
EXTT1=
EXTT2=
EXTT3=
EXTT4=
EXTT5=
EXTT6=
EXTT7=
EXTT8=
EXTT9=
EXTT10=
EXTT11=
EXTT12=
EXTT13=
EXTT14=
EXTT15=
EXTT16=
EXTT17=
PLAYORDER=
